# xmcd
#
# Track frame offsets:
#	150
#	17732
#	31952
#	53136
#	71790
#	86939
#	114510
#	139001
#	165835
#	184000
#	215602
#
# Disc length: 3502 seconds
#
# Revision: 1
# Processed by: cddbd v1.5.2PL0 Copyright (c) Steve Scherf et al.
# Submitted via: audiograbber 1.83.01
#
DISCID=950dac0b
DTITLE=Dulemann - Alles in Ordnung
DYEAR=2006
DGENRE=
TTITLE0=Alles in Ordnung?
TTITLE1=Glaub net ois
TTITLE2=Die Steiermark
TTITLE3=Heit geb ma uns die Nocht
TTITLE4=5 Uhr Blues
TTITLE5=Alkohol
TTITLE6=Montag Blues
TTITLE7=Verrückt (bin ich nach Dir)
TTITLE8=Sweet Trofaiach
TTITLE9=Blues im Bluat
TTITLE10=Imma Stia
EXTD=Dulemann und die Le Blues Band
EXTT0=
EXTT1=
EXTT2=
EXTT3=
EXTT4=
EXTT5=
EXTT6=
EXTT7=
EXTT8=
EXTT9=
EXTT10=
PLAYORDER=
